<svg width="16" height="19" xmlns="http://www.w3.org/2000/svg" version="1.1">

 <g>
  <title>Layer 1</title>
  <g id="layer1">
   <path id="svg_1" stroke-width="0px" fill="#222222" d="m2,0l0,2l-2,0l0,1l2,0l0,1l-2,0l0,1l2,0l0,1l-2,0l0,1l2,0l0,1l-2,0l0,1l2,0l0,1l-2,0l0,1l2,0l0,1l-2,0l0,1l2,0l0,1l-2,0l0,1l2,0l0,1l-2,0l0,1l2,0l0,2l12,0l0,-2l2,0l0,-1l-2,0l0,-1l2,0l0,-1l-2,0l0,-1l2,0l0,-1l-2,0l0,-1l2,0l0,-1l-2,0l0,-1l2,0l0,-1l-2,0l0,-1l2,0l0,-1l-2,0l0,-1l2,0l0,-1l-2,0l0,-1l2,0l0,-1l-2,0l0,-2l-4,0l-1,1l-2,0l-1,-1l-4,0zm1,1l2.5,0l1,1l3,0l1,-1l2.5,0l0,17l-10,0l0,-17z"/>
  </g>
 </g>
</svg>