<svg width="19" height="23" xmlns="http://www.w3.org/2000/svg" data-name="Layer 1">

 <g>
  <title>Layer 1</title>
  <g id="svg_7">
   <path id="svg_1" stroke-width="1.91px" stroke-miterlimit="10" stroke="#020202" fill="none" d="m14.43,22l-9.76,0a1.9,1.9 0 0 1 -1.9,-1.8l-0.86,-15.38l15.28,0l-0.86,15.38a1.9,1.9 0 0 1 -1.9,1.8z" class="cls-1"/>
   <line id="svg_2" stroke-width="1.91px" stroke-miterlimit="10" stroke="#020202" fill="none" y2="4.82" x2="19.1" y1="4.82" x1="0" class="cls-1"/>
   <path id="svg_3" stroke-width="1.91px" stroke-miterlimit="10" stroke="#020202" fill="none" d="m7.64,1l3.82,0a1.91,1.91 0 0 1 1.91,1.91l0,1.91a0,0 0 0 1 0,0l-7.64,0a0,0 0 0 1 0,0l0,-1.91a1.91,1.91 0 0 1 1.91,-1.91z" class="cls-1"/>
   <line id="svg_4" stroke-width="1.91px" stroke-miterlimit="10" stroke="#020202" fill="none" y2="19.14" x2="9.55" y1="7.68" x1="9.55" class="cls-1"/>
   <line id="svg_5" stroke-width="1.91px" stroke-miterlimit="10" stroke="#020202" fill="none" y2="19.14" x2="13.37" y1="7.68" x1="13.37" class="cls-1"/>
   <line id="svg_6" stroke-width="1.91px" stroke-miterlimit="10" stroke="#020202" fill="none" y2="19.14" x2="5.73" y1="7.68" x1="5.73" class="cls-1"/>
  </g>
 </g>
</svg>