<svg width="10" height="10" xmlns="http://www.w3.org/2000/svg" fill="#000000">

 <g>
  <title>Layer 1</title>
  <path stroke="null" id="svg_1" d="m6.91303,5.67163l2.17634,0.98924c0.56191,0.25542 0.92268,0.81569 0.92268,1.43293l0,0.44839c0,0.8693 -0.70471,1.57401 -1.57401,1.57401l-6.92565,0c-0.8693,0 -1.57401,-0.70471 -1.57401,-1.57401l0,-0.44839c0,-0.61724 0.36077,-1.17751 0.92268,-1.43293l2.17634,-0.98924c-0.73668,-0.57619 -1.2102,-1.47334 -1.2102,-2.48108c0,-1.7386 1.40942,-3.14802 3.14802,-3.14802c1.7386,0 3.14802,1.40942 3.14802,3.14802c0,1.00775 -0.47352,1.90489 -1.2102,2.48108l0,0zm-3.22142,0.39422l-2.57003,1.16819c-0.33715,0.15325 -0.55361,0.48941 -0.55361,0.85976l0,0.44839c0,0.52158 0.42282,0.94441 0.94441,0.94441l6.92565,0c0.52158,0 0.94441,-0.42282 0.94441,-0.94441l0,-0.44839c0,-0.37035 -0.21646,-0.70651 -0.55361,-0.85976l-2.57003,-1.16819c-0.392,0.17526 -0.82642,0.27272 -1.28359,0.27272c-0.45717,0 -0.89159,-0.09746 -1.28359,-0.27272l0,0zm1.28359,-0.35689c1.39088,0 2.51842,-1.12753 2.51842,-2.51842c0,-1.39088 -1.12753,-2.51842 -2.51842,-2.51842c-1.39088,0 -2.51842,1.12753 -2.51842,2.51842c0,1.39088 1.12753,2.51842 2.51842,2.51842z"/>
 </g>
</svg>